<svg width="48" height="48" viewBox="0 0 48 48" fill="none" xmlns="http://www.w3.org/2000/svg">
<g clip-path="url(#clip0_163_548)">
<path d="M7.2721 22.586C6.89715 22.9611 6.68652 23.4697 6.68652 24C6.68652 24.5304 6.89715 25.039 7.2721 25.414L18.5861 36.728C18.7706 36.9191 18.9913 37.0714 19.2353 37.1762C19.4793 37.2811 19.7417 37.3362 20.0073 37.3385C20.2729 37.3409 20.5362 37.2903 20.782 37.1897C21.0278 37.0891 21.2511 36.9406 21.4389 36.7528C21.6267 36.5651 21.7752 36.3417 21.8757 36.096C21.9763 35.8502 22.0269 35.5868 22.0246 35.3212C22.0223 35.0557 21.9671 34.7932 21.8623 34.5492C21.7575 34.3052 21.6051 34.0845 21.4141 33.9L13.5141 26H40.0001C40.5305 26 41.0392 25.7893 41.4143 25.4143C41.7894 25.0392 42.0001 24.5305 42.0001 24C42.0001 23.4696 41.7894 22.9609 41.4143 22.5858C41.0392 22.2108 40.5305 22 40.0001 22H13.5141L21.4141 14.1C21.7784 13.7228 21.98 13.2176 21.9754 12.6932C21.9709 12.1689 21.7605 11.6672 21.3897 11.2964C21.0189 10.9256 20.5173 10.7153 19.9929 10.7107C19.4685 10.7061 18.9633 10.9077 18.5861 11.272L7.2721 22.586Z" fill="#004CE5"/>
</g>
<defs>
<clipPath id="clip0_163_548">
<rect width="48" height="48" fill="white" transform="matrix(0 -1 1 0 0 48)"/>
</clipPath>
</defs>
</svg>
