<svg width="32" height="32" viewBox="0 0 32 32" fill="none" xmlns="http://www.w3.org/2000/svg">
<path d="M25.3337 5.33335H22.667V4.00002C22.667 3.6464 22.5265 3.30726 22.2765 3.05721C22.0264 2.80716 21.6873 2.66669 21.3337 2.66669C20.98 2.66669 20.6409 2.80716 20.3909 3.05721C20.1408 3.30726 20.0003 3.6464 20.0003 4.00002V5.33335H12.0003V4.00002C12.0003 3.6464 11.8598 3.30726 11.6098 3.05721C11.3598 2.80716 11.0206 2.66669 10.667 2.66669C10.3134 2.66669 9.97423 2.80716 9.72418 3.05721C9.47413 3.30726 9.33366 3.6464 9.33366 4.00002V5.33335H6.66699C5.60613 5.33335 4.58871 5.75478 3.83857 6.50493C3.08842 7.25507 2.66699 8.27249 2.66699 9.33335V25.3334C2.66699 26.3942 3.08842 27.4116 3.83857 28.1618C4.58871 28.9119 5.60613 29.3334 6.66699 29.3334H25.3337C26.3945 29.3334 27.4119 28.9119 28.1621 28.1618C28.9122 27.4116 29.3337 26.3942 29.3337 25.3334V9.33335C29.3337 8.27249 28.9122 7.25507 28.1621 6.50493C27.4119 5.75478 26.3945 5.33335 25.3337 5.33335ZM26.667 25.3334C26.667 25.687 26.5265 26.0261 26.2765 26.2762C26.0264 26.5262 25.6873 26.6667 25.3337 26.6667H6.66699C6.31337 26.6667 5.97423 26.5262 5.72418 26.2762C5.47413 26.0261 5.33366 25.687 5.33366 25.3334V16H26.667V25.3334ZM26.667 13.3334H5.33366V9.33335C5.33366 8.97973 5.47413 8.64059 5.72418 8.39054C5.97423 8.1405 6.31337 8.00002 6.66699 8.00002H9.33366V9.33335C9.33366 9.68698 9.47413 10.0261 9.72418 10.2762C9.97423 10.5262 10.3134 10.6667 10.667 10.6667C11.0206 10.6667 11.3598 10.5262 11.6098 10.2762C11.8598 10.0261 12.0003 9.68698 12.0003 9.33335V8.00002H20.0003V9.33335C20.0003 9.68698 20.1408 10.0261 20.3909 10.2762C20.6409 10.5262 20.98 10.6667 21.3337 10.6667C21.6873 10.6667 22.0264 10.5262 22.2765 10.2762C22.5265 10.0261 22.667 9.68698 22.667 9.33335V8.00002H25.3337C25.6873 8.00002 26.0264 8.1405 26.2765 8.39054C26.5265 8.64059 26.667 8.97973 26.667 9.33335V13.3334Z" fill="white"/>
</svg>
